<svg id="Réteg_1" data-name="Réteg 1" xmlns="http://www.w3.org/2000/svg" viewBox="0 0 259.46 107.87"><defs><style>.cls-1{fill:#6bdedc;}.cls-2{fill:#00bbb8;}.cls-3{fill:#c2c2c2;}.cls-4{fill:#eeebe3;}.cls-5{fill:#f59b5a;}</style></defs><title>cskivlogo</title><g id="hazak"><path class="cls-1" d="M191.67,21H172.94c-0.54,0,.06.68,0.06,1.22V58h-5V38.19a1.42,1.42,0,0,0-1.19-1L98.07,25,97.8,25a1.06,1.06,0,0,0-.87.45L59.66,84a1,1,0,0,0,.25,1.33,1,1,0,0,0,.55.18,1,1,0,0,0,.77-0.38L99.91,34.73l48.5,59.15a1,1,0,0,0,.44.31c0.23,0.08,23.14,7.71,47.06,7.71,22.16,0,38.1-6.32,47.38-18.78a1,1,0,0,0,0-1.14L218.19,45.32a0.67,0.67,0,0,0-.47-0.41L193,40.84V22.22A1.41,1.41,0,0,0,191.81,21h-0.14Z" transform="translate(-0.27 -21)"/><path class="cls-2" d="M88.39,35H46.54a0.85,0.85,0,0,0-.82.26L10.48,90.64a0.92,0.92,0,0,0,.28,1.28,1,1,0,0,0,.55.15,1,1,0,0,0,.79-0.42L48.26,41.8,69.68,59.87a1,1,0,0,0,.63.23h0.1a1,1,0,0,0,.67-0.38L89.16,36.19a0.68,0.68,0,0,0,.1-0.84A0.84,0.84,0,0,0,88.39,35h0Z" transform="translate(-0.27 -21)"/><rect class="cls-3" x="86.73" y="34" width="12" height="12"/><rect class="cls-3" x="99.73" y="34" width="10" height="12"/><rect class="cls-3" x="86.73" y="48" width="12" height="12"/><rect class="cls-3" x="99.73" y="48" width="10" height="12"/><rect class="cls-3" x="40.2" y="34.67" width="5.35" height="8.03"/><rect class="cls-3" x="46.89" y="34.67" width="5.35" height="8.03"/><rect class="cls-3" x="40.2" y="44.04" width="5.35" height="8.03"/><rect class="cls-3" x="46.89" y="44.04" width="5.35" height="8.03"/></g><g id="hullamok"><path class="cls-1" d="M252,78s-0.05.39-.08,0.39a1.44,1.44,0,0,0-.43.33,1.47,1.47,0,0,0-.26.32s0,0.1-.06.12a80.32,80.32,0,0,1-10.4,12.59,64.18,64.18,0,0,1-6.09,5.15A52.53,52.53,0,0,1,228,101c-8.26,4.39-18.16,6.64-30.25,6.89l-1.81,0a162.67,162.67,0,0,1-30.13-3.15c-5.73-1.08-10.94-2.21-15.94-3.44S139.61,98.76,134,97.18c-2.75-.76-5.44-1.54-7.94-2.27-3.21-.94-5.84-1.66-8.27-2.26C111.71,91.15,106.2,90,101,89.23A182.19,182.19,0,0,0,73,87c-2.09,0-4.2,0-6.28.11a165.84,165.84,0,0,0-33.86,4.75A145.26,145.26,0,0,0,16.6,97a90.84,90.84,0,0,0-15.32,7.4,1,1,0,0,0,.85,1.75c2.51-.91,5.16-1.74,7.88-2.47s5.36-1.42,8-2c5.94-1.29,11.23-2.2,16.17-2.79a189.07,189.07,0,0,1,25-1.59c2.48,0,5,0,7.59.13a212.32,212.32,0,0,1,32.19,3.65c5.88,1.14,11,2.33,15.78,3.62,2.3,0.62,5,1.37,7.82,2.22,2.56,0.77,5.31,1.59,8.1,2.38a282.23,282.23,0,0,0,33.22,7.36,164.1,164.1,0,0,0,24.32,2c3.49,0,6.93-.15,10.22-0.45a80.42,80.42,0,0,0,17.34-3.37,62.08,62.08,0,0,0,16-7.69A56.23,56.23,0,0,0,244.48,95a65.6,65.6,0,0,0,8.43-14.88,3.57,3.57,0,0,0,.09-0.8,1.39,1.39,0,0,0-.93-1.37h0Z" transform="translate(-0.27 -21)"/><path class="cls-1" d="M258.75,83.59a1,1,0,0,0-.91.63,53.62,53.62,0,0,1-8.5,14.36,60,60,0,0,1-12.08,11.27c-8.57,6-18.86,10-30.57,11.88A105.18,105.18,0,0,1,190,123.11l-2,0c-4.29,0-8.88-.24-14.87-0.78a294.49,294.49,0,0,1-33.67-5.68l-0.21,0a1,1,0,0,0-.34,1.89,164.42,164.42,0,0,0,33.61,8.86,126.76,126.76,0,0,0,18.86,1.47,103.8,103.8,0,0,0,16.25-1.25,82.07,82.07,0,0,0,17.16-4.76,64.69,64.69,0,0,0,15.5-8.94,57.56,57.56,0,0,0,12.18-13,47.31,47.31,0,0,0,7.23-16.13,1,1,0,0,0-1-1.19h0Z" transform="translate(-0.27 -21)"/></g><g id="feliratlight"><path class="cls-4" d="M10.24,78.05h4.17a1,1,0,0,0,1-1V74.35c0-5.11-2.76-8-7.56-8s-7.56,2.93-7.56,8V89c0,5.11,2.76,8,7.56,8s7.56-2.93,7.56-8V85.23a1,1,0,0,0-1-1H10.24a1,1,0,0,0-1,1v4C9.26,90.86,8.67,91,8,91s-1.31-.13-1.31-1.75V74.07c0-1.66.62-1.79,1.31-1.79s1.31,0.14,1.31,1.79v3A1,1,0,0,0,10.24,78.05Z" transform="translate(-0.27 -21)"/><path class="cls-4" d="M23,66.3c-4.75,0-7.48,2.93-7.48,8,0,3.61,1.41,6.19,5.19,9.53,2.91,2.55,3.44,3.81,3.44,5.37S23.6,91,22.89,91s-1.31-.13-1.31-1.75v-2a1,1,0,0,0-1-1H16.42a1,1,0,0,0-1,1V89c0,5.11,2.76,8,7.56,8s7.56-2.93,7.56-8c0-3.61-1.41-6.19-5.19-9.52-2.91-2.55-3.44-3.81-3.44-5.37,0-1.79.68-1.79,1.23-1.79s1.23,0,1.23,1.79v1.16a1,1,0,0,0,1,1h4.17a1,1,0,0,0,1-1V74.35c0-5.11-2.73-8-7.48-8h0Z" transform="translate(-0.27 -21)"/><path class="cls-4" d="M47.38,95.55l-4.5-28.1a1,1,0,0,0-1-.82H35.45a1,1,0,0,0-1,.82L30,95.55a1,1,0,0,0,1,1.13H35a1,1,0,0,0,1-.83l0.64-4.27h3.74L41,95.85a1,1,0,0,0,1,.83h4.46A1,1,0,0,0,47.38,95.55Zm-9.91-9.73,1-6.78,1,6.78h-2Z" transform="translate(-0.27 -21)"/><path class="cls-4" d="M52.87,66.63H48.46a1,1,0,0,0-1,1V95.7a1,1,0,0,0,1,1H60.14a1,1,0,0,0,1-1v-4a1,1,0,0,0-1-1H53.85V67.6a1,1,0,0,0-1-1h0Z" transform="translate(-0.27 -21)"/><path class="cls-4" d="M77.32,95.55l-4.5-28.1a1,1,0,0,0-1-.82H70.11l4-4.3a1,1,0,0,0-.72-1.64H69a1,1,0,0,0-.83.47l-2.73,4.46a1,1,0,0,0,0,1l0,0h0a1,1,0,0,0-1,.82l-4.5,28.1a1,1,0,0,0,1,1.13H65a1,1,0,0,0,1-.83l0.64-4.27H70.3l0.64,4.27a1,1,0,0,0,1,.83h4.46A1,1,0,0,0,77.32,95.55Zm-9.91-9.73,1-6.78,1,6.78h-2Z" transform="translate(-0.27 -21)"/><path class="cls-4" d="M85.39,66.63h-7a1,1,0,0,0-1,1V95.7a1,1,0,0,0,1,1h7c4.88,0,7.56-2.81,7.56-7.92V74.55C92.95,69.44,90.26,66.63,85.39,66.63ZM86.58,89c0,1.75-.68,1.75-1.27,1.75H83.8V72.6h1.51c0.6,0,1.27,0,1.27,1.75V89Z" transform="translate(-0.27 -21)"/><path class="cls-4" d="M99.2,66.63H94.78a1,1,0,0,0-1,1V95.7a1,1,0,0,0,1,1H99.2a1,1,0,0,0,1-1V67.6a1,1,0,0,0-1-1h0Z" transform="translate(-0.27 -21)"/><path class="cls-4" d="M116.34,66.63h-4.5a1,1,0,0,0-1,1V78.67H107.8V67.6a1,1,0,0,0-1-1h-4.42a1,1,0,0,0-1,1V95.7a1,1,0,0,0,1,1h4.42a1,1,0,0,0,1-1V84.64h3.06V95.7a1,1,0,0,0,1,1h4.5a1,1,0,0,0,1-1V67.6a1,1,0,0,0-1-1h0Z" transform="translate(-0.27 -21)"/><path class="cls-4" d="M134.81,95.55l-4.5-28.1a1,1,0,0,0-1-.82h-1.75l4-4.3a1,1,0,0,0-.72-1.64h-4.34a1,1,0,0,0-.83.47l-2.73,4.46a1,1,0,0,0,0,1l0,0h0a1,1,0,0,0-1,.82l-4.5,28.1a1,1,0,0,0,1,1.13h4.05a1,1,0,0,0,1-.83L124,91.58h3.74l0.64,4.27a1,1,0,0,0,1,.83h4.46A1,1,0,0,0,134.81,95.55Zm-9.91-9.73,1-6.78,1,6.78h-2Z" transform="translate(-0.27 -21)"/><path class="cls-4" d="M148.13,66.63H135.61a1,1,0,0,0-1,1v4a1,1,0,0,0,1,1h6.52l-7.83,18.8a1,1,0,0,0-.08.38V95.7a1,1,0,0,0,1,1h12.93a1,1,0,0,0,1-1v-4a1,1,0,0,0-1-1h-6.93L149,71.91a1,1,0,0,0,.08-0.38V67.6a1,1,0,0,0-1-1h0Z" transform="translate(-0.27 -21)"/><path class="cls-4" d="M99.72,97.41H95.3a1,1,0,0,0-.88.56l-3.92,8.36V98.38a1,1,0,0,0-1-1H85.1a1,1,0,0,0-1,1v28.1a1,1,0,0,0,1,1h4.42a1,1,0,0,0,1-1V118.1l0.24-.46,3.53,9.2a1,1,0,0,0,.91.63h4.54a1,1,0,0,0,.91-1.34l-6-15.17,5.93-12.1a1,1,0,0,0-.86-1.45h0Z" transform="translate(-0.27 -21)"/><path class="cls-4" d="M106.14,97.41h-4.42a1,1,0,0,0-1,1v28.1a1,1,0,0,0,1,1h4.42a1,1,0,0,0,1-1V98.38a1,1,0,0,0-1-1h0Z" transform="translate(-0.27 -21)"/><path class="cls-4" d="M123.44,97.41h-4.06a1,1,0,0,0-1,.84L116,114.79l-2.41-16.55a1,1,0,0,0-1-.84h-4.46a1,1,0,0,0-1,1.13l4.34,28.1a1,1,0,0,0,1,.83h6.58a1,1,0,0,0,1-.83l4.33-28.05a1,1,0,0,0-1-1.18h0Z" transform="translate(-0.27 -21)"/><path class="cls-4" d="M129.9,97.41h-4.42a1,1,0,0,0-1,1v28.1a1,1,0,0,0,1,1h4.42a1,1,0,0,0,1-1V98.38a1,1,0,0,0-1-1h0Z" transform="translate(-0.27 -21)"/><path class="cls-4" d="M145.48,97.41H131.83a1,1,0,0,0-1,1v4a1,1,0,0,0,1,1h3.64v23.11a1,1,0,0,0,1,1h4.42a1,1,0,0,0,1-1V103.37h3.64a1,1,0,0,0,1-1v-4a1,1,0,0,0-1-1h0Z" transform="translate(-0.27 -21)"/><path class="cls-4" d="M159.45,97.41h-12a1,1,0,0,0-1,1v28.1a1,1,0,0,0,1,1h12a1,1,0,0,0,1-1v-4a1,1,0,0,0-1-1H152.8v-6.28h5.08a1,1,0,0,0,1-1v-4a1,1,0,0,0-1-1H152.8v-5.87h6.65a1,1,0,0,0,1-1v-4a1,1,0,0,0-1-1h0Z" transform="translate(-0.27 -21)"/><path class="cls-4" d="M166.59,97.41h-4.42a1,1,0,0,0-1,1v28.1a1,1,0,0,0,1,1h11.68a1,1,0,0,0,1-1v-4a1,1,0,0,0-1-1h-6.29V98.38a1,1,0,0,0-1-1h0Z" transform="translate(-0.27 -21)"/><path class="cls-4" d="M187.83,97.41h-12a1,1,0,0,0-1,1v28.1a1,1,0,0,0,1,1h12a1,1,0,0,0,1-1v-4a1,1,0,0,0-1-1h-6.65v-6.28h5.08a1,1,0,0,0,1-1v-4a1,1,0,0,0-1-1h-5.08v-5.87h6.65a1,1,0,0,0,1-1v-4a1,1,0,0,0-1-1h0Z" transform="translate(-0.27 -21)"/><path class="cls-4" d="M202.8,97.41H190.28a1,1,0,0,0-1,1v4a1,1,0,0,0,1,1h6.52L189,122.17a1,1,0,0,0-.08.38v3.93a1,1,0,0,0,1,1H202.8a1,1,0,0,0,1-1v-4a1,1,0,0,0-1-1h-6.93l7.83-18.8a1,1,0,0,0,.08-0.38V98.38a1,1,0,0,0-1-1h0Z" transform="translate(-0.27 -21)"/><path class="cls-4" d="M216.13,91.46h-4.34a1,1,0,0,0-.83.47l-2.73,4.46a1,1,0,0,0,0,1l0,0h-2.82a1,1,0,0,0-1,1v28.1a1,1,0,0,0,1,1h12a1,1,0,0,0,1-1v-4a1,1,0,0,0-1-1H210.8v-6.28h5.08a1,1,0,0,0,1-1v-4a1,1,0,0,0-1-1H210.8v-5.87h6.65a1,1,0,0,0,1-1v-4a1,1,0,0,0-1-1h-4.56l4-4.3a1,1,0,0,0-.72-1.64h0Z" transform="translate(-0.27 -21)"/><path class="cls-4" d="M226.12,97.08c-4.75,0-7.48,2.93-7.48,8,0,3.61,1.41,6.19,5.19,9.53,2.91,2.55,3.44,3.81,3.44,5.37s-0.59,1.75-1.31,1.75-1.31-.13-1.31-1.75v-2a1,1,0,0,0-1-1H219.5a1,1,0,0,0-1,1v1.73c0,5.11,2.76,8,7.56,8s7.56-2.93,7.56-8c0-3.61-1.41-6.19-5.19-9.52-2.91-2.55-3.44-3.81-3.44-5.37,0-1.79.68-1.79,1.23-1.79s1.23,0,1.23,1.79V106a1,1,0,0,0,1,1h4.17a1,1,0,0,0,1-1v-0.88c0-5.11-2.73-8-7.48-8h0Z" transform="translate(-0.27 -21)"/></g><g id="feliratdark"><path class="cls-5" d="M7.83,96.51C3.27,96.51.76,93.83,0.76,89V74.35c0-4.87,2.51-7.55,7.07-7.55s7.07,2.68,7.07,7.55v2.73a0.49,0.49,0,0,1-.49.49H10.24a0.49,0.49,0,0,1-.49-0.49v-3c0-2-.91-2.28-1.8-2.28s-1.8.27-1.8,2.28V89.24c0,2,.91,2.24,1.8,2.24s1.8-.27,1.8-2.24v-4a0.49,0.49,0,0,1,.49-0.49h4.17a0.49,0.49,0,0,1,.49.49V89C14.91,93.83,12.39,96.51,7.83,96.51Z" transform="translate(-0.27 -21)"/><path class="cls-5" d="M23,96.51c-4.56,0-7.07-2.68-7.07-7.55V87.23a0.49,0.49,0,0,1,.49-0.49H20.6a0.49,0.49,0,0,1,.49.49v2c0,2,.91,2.24,1.8,2.24s1.8-.27,1.8-2.24-0.91-3.37-3.61-5.73c-3.66-3.22-5-5.71-5-9.16,0-4.87,2.48-7.55,7-7.55s7,2.68,7,7.55v0.88a0.49,0.49,0,0,1-.49.49H25.38a0.49,0.49,0,0,1-.49-0.49V74.07c0-2-.83-2.28-1.72-2.28s-1.72.28-1.72,2.28,0.91,3.38,3.61,5.73c3.66,3.22,5,5.71,5,9.16C30.08,93.83,27.57,96.51,23,96.51Z" transform="translate(-0.27 -21)"/><path class="cls-5" d="M42,96.19a0.49,0.49,0,0,1-.48-0.42l-0.7-4.68H36.19l-0.7,4.68a0.49,0.49,0,0,1-.48.42H31a0.49,0.49,0,0,1-.48-0.57L35,67.53a0.49,0.49,0,0,1,.48-0.41h6.46a0.49,0.49,0,0,1,.48.41l4.5,28.1a0.49,0.49,0,0,1-.48.57H42ZM40,86.3L38.46,75.67,36.9,86.3H40Z" transform="translate(-0.27 -21)"/><path class="cls-5" d="M48.46,96.19A0.49,0.49,0,0,1,48,95.7V67.6a0.49,0.49,0,0,1,.49-0.49h4.42a0.49,0.49,0,0,1,.49.49V91.2h6.78a0.49,0.49,0,0,1,.49.49v4a0.49,0.49,0,0,1-.49.49H48.46Z" transform="translate(-0.27 -21)"/><path class="cls-5" d="M71.9,96.19a0.49,0.49,0,0,1-.48-0.42l-0.7-4.68H66.14l-0.7,4.68a0.49,0.49,0,0,1-.48.42H60.9a0.49,0.49,0,0,1-.48-0.57l4.5-28.1a0.49,0.49,0,0,1,.48-0.41h6.46a0.49,0.49,0,0,1,.48.41l4.5,28.1a0.49,0.49,0,0,1-.48.57H71.9ZM70,86.3L68.41,75.67,66.85,86.3H70Zm-3.69-19.7a0.49,0.49,0,0,1-.42-0.74l2.73-4.46A0.49,0.49,0,0,1,69,61.17h4.34a0.49,0.49,0,0,1,.36.82l-4.09,4.46a0.49,0.49,0,0,1-.36.16h-3Z" transform="translate(-0.27 -21)"/><path class="cls-5" d="M78.4,96.19a0.49,0.49,0,0,1-.49-0.49V67.6a0.49,0.49,0,0,1,.49-0.49h7c4.63,0,7.07,2.57,7.07,7.43V88.76c0,4.86-2.45,7.43-7.07,7.43h-7Zm6.9-5c0.91,0,1.76-.27,1.76-2.24V74.35c0-2-.85-2.24-1.76-2.24h-2V91.2h2Z" transform="translate(-0.27 -21)"/><rect class="cls-5" x="94.02" y="46.12" width="5.39" height="29.08" rx="0.49" ry="0.49"/><path class="cls-5" d="M111.84,96.19a0.49,0.49,0,0,1-.49-0.49V84.15h-4V95.7a0.49,0.49,0,0,1-.49.49h-4.42a0.49,0.49,0,0,1-.49-0.49V67.6a0.49,0.49,0,0,1,.49-0.49h4.42a0.49,0.49,0,0,1,.49.49V79.16h4V67.6a0.49,0.49,0,0,1,.49-0.49h4.5a0.49,0.49,0,0,1,.49.49V95.7a0.49,0.49,0,0,1-.49.49h-4.5Z" transform="translate(-0.27 -21)"/><path class="cls-5" d="M129.38,96.19a0.49,0.49,0,0,1-.48-0.42l-0.7-4.68h-4.58l-0.7,4.68a0.49,0.49,0,0,1-.48.42h-4.05a0.49,0.49,0,0,1-.48-0.57l4.5-28.1a0.49,0.49,0,0,1,.48-0.41h6.46a0.49,0.49,0,0,1,.48.41l4.5,28.1a0.49,0.49,0,0,1-.48.57h-4.46Zm-1.93-9.89-1.56-10.63L124.33,86.3h3.12Zm-3.69-19.7a0.49,0.49,0,0,1-.42-0.74l2.73-4.46a0.49,0.49,0,0,1,.42-0.23h4.34a0.49,0.49,0,0,1,.36.82l-4.09,4.46a0.49,0.49,0,0,1-.36.16h-3Z" transform="translate(-0.27 -21)"/><path class="cls-5" d="M135.21,96.19a0.49,0.49,0,0,1-.49-0.49V91.77a0.49,0.49,0,0,1,0-.19l8.11-19.48h-7.26a0.49,0.49,0,0,1-.49-0.49v-4a0.49,0.49,0,0,1,.49-0.49h12.53a0.49,0.49,0,0,1,.49.49v3.93a0.49,0.49,0,0,1,0,.19L140.47,91.2h7.66a0.49,0.49,0,0,1,.49.49v4a0.49,0.49,0,0,1-.49.49H135.21Z" transform="translate(-0.27 -21)"/><path class="cls-5" d="M95.18,127a0.49,0.49,0,0,1-.46-0.31l-3.91-10.2L90,118v8.51a0.49,0.49,0,0,1-.49.49H85.1a0.49,0.49,0,0,1-.49-0.49V98.38a0.49,0.49,0,0,1,.49-0.49h4.42a0.49,0.49,0,0,1,.49.49v10.14l4.85-10.35a0.49,0.49,0,0,1,.44-0.28h4.42a0.49,0.49,0,0,1,.44.7l-6,12.33,6.06,15.38a0.49,0.49,0,0,1-.45.67H95.18Z" transform="translate(-0.27 -21)"/><rect class="cls-5" x="100.96" y="76.89" width="5.39" height="29.08" rx="0.49" ry="0.49"/><path class="cls-5" d="M112.52,127a0.49,0.49,0,0,1-.48-0.41l-4.34-28.1a0.49,0.49,0,0,1,.48-0.56h4.46a0.49,0.49,0,0,1,.48.42L116,118.18l2.89-19.87a0.49,0.49,0,0,1,.48-0.42h4.05a0.49,0.49,0,0,1,.48.56l-4.34,28.1a0.49,0.49,0,0,1-.48.41h-6.58Z" transform="translate(-0.27 -21)"/><rect class="cls-5" x="124.72" y="76.89" width="5.39" height="29.08" rx="0.49" ry="0.49"/><path class="cls-5" d="M136.44,127a0.49,0.49,0,0,1-.49-0.49v-23.6h-4.13a0.49,0.49,0,0,1-.49-0.49v-4a0.49,0.49,0,0,1,.49-0.49h13.65a0.49,0.49,0,0,1,.49.49v4a0.49,0.49,0,0,1-.49.49h-4.13v23.6a0.49,0.49,0,0,1-.49.49h-4.42Z" transform="translate(-0.27 -21)"/><path class="cls-5" d="M147.4,127a0.49,0.49,0,0,1-.49-0.49V98.38a0.49,0.49,0,0,1,.49-0.49h12a0.49,0.49,0,0,1,.49.49v4a0.49,0.49,0,0,1-.49.49h-7.14v6.85h5.57a0.49,0.49,0,0,1,.49.49v4a0.49,0.49,0,0,1-.49.49h-5.57V122h7.14a0.49,0.49,0,0,1,.49.49v4a0.49,0.49,0,0,1-.49.49h-12Z" transform="translate(-0.27 -21)"/><path class="cls-5" d="M162.18,127a0.49,0.49,0,0,1-.49-0.49V98.38a0.49,0.49,0,0,1,.49-0.49h4.42a0.49,0.49,0,0,1,.49.49V122h6.78a0.49,0.49,0,0,1,.49.49v4a0.49,0.49,0,0,1-.49.49H162.18Z" transform="translate(-0.27 -21)"/><path class="cls-5" d="M175.78,127a0.49,0.49,0,0,1-.49-0.49V98.38a0.49,0.49,0,0,1,.49-0.49h12a0.49,0.49,0,0,1,.49.49v4a0.49,0.49,0,0,1-.49.49h-7.14v6.85h5.57a0.49,0.49,0,0,1,.49.49v4a0.49,0.49,0,0,1-.49.49h-5.57V122h7.14a0.49,0.49,0,0,1,.49.49v4a0.49,0.49,0,0,1-.49.49h-12Z" transform="translate(-0.27 -21)"/><path class="cls-5" d="M189.87,127a0.49,0.49,0,0,1-.49-0.49v-3.93a0.49,0.49,0,0,1,0-.19l8.11-19.48h-7.26a0.49,0.49,0,0,1-.49-0.49v-4a0.49,0.49,0,0,1,.49-0.49H202.8a0.49,0.49,0,0,1,.49.49v3.93a0.49,0.49,0,0,1,0,.19L195.14,122h7.66a0.49,0.49,0,0,1,.49.49v4a0.49,0.49,0,0,1-.49.49H189.87Z" transform="translate(-0.27 -21)"/><path class="cls-5" d="M205.41,127a0.49,0.49,0,0,1-.49-0.49V98.38a0.49,0.49,0,0,1,.49-0.49h12a0.49,0.49,0,0,1,.49.49v4a0.49,0.49,0,0,1-.49.49h-7.14v6.85h5.57a0.49,0.49,0,0,1,.49.49v4a0.49,0.49,0,0,1-.49.49h-5.57V122h7.14a0.49,0.49,0,0,1,.49.49v4a0.49,0.49,0,0,1-.49.49h-12Z" transform="translate(-0.27 -21)"/><path class="cls-5" d="M209.06,97.39a0.49,0.49,0,0,1-.42-0.74l2.73-4.46a0.49,0.49,0,0,1,.42-0.23h4.34a0.49,0.49,0,0,1,.36.82l-4.09,4.46a0.49,0.49,0,0,1-.36.16h-3Z" transform="translate(-0.27 -21)"/><path class="cls-5" d="M226.08,127.29c-4.56,0-7.07-2.68-7.07-7.55V118a0.49,0.49,0,0,1,.49-0.49h4.18a0.49,0.49,0,0,1,.49.49v2c0,2,.91,2.24,1.8,2.24s1.8-.27,1.8-2.24-0.91-3.37-3.61-5.73c-3.66-3.22-5-5.71-5-9.16,0-4.87,2.48-7.55,7-7.55s7,2.68,7,7.55V106a0.49,0.49,0,0,1-.49.49h-4.17A0.49,0.49,0,0,1,228,106v-1.16c0-2-.83-2.28-1.72-2.28s-1.72.28-1.72,2.28,0.91,3.38,3.61,5.73c3.66,3.22,5,5.71,5,9.16C233.15,124.61,230.64,127.29,226.08,127.29Z" transform="translate(-0.27 -21)"/></g></svg>