<?xml version="1.0" encoding="utf-8"?>
<!-- Generator: Adobe Illustrator 19.2.1, SVG Export Plug-In . SVG Version: 6.00 Build 0)  -->
<svg version="1.1" id="Réteg_1" xmlns="http://www.w3.org/2000/svg" xmlns:xlink="http://www.w3.org/1999/xlink" x="0px" y="0px"
	 viewBox="0 0 700 400" style="enable-background:new 0 0 700 400;" xml:space="preserve">
<style type="text/css">
	#st0{
		fill:#f07746;
	}
</style>

<g id="st0">
<path d="M121.7,235.2c34.7-19.1,58.2-56,58.2-98.4c0-62.1-50.5-112.5-112.5-112.5c-21.3,0-42,6.1-60,17.4
	c-2.3,1.4-4.2,3.4-5.5,5.7c0,0,0,0.1,0,0.1c-0.2,0.4-0.4,0.8-0.6,1.2c0,0.1-0.1,0.2-0.1,0.3c-0.2,0.4-0.3,0.7-0.4,1.1
	c0,0.1-0.1,0.3-0.1,0.4c-0.1,0.3-0.2,0.6-0.3,1c0,0.2-0.1,0.4-0.1,0.6c0,0.3-0.1,0.5-0.1,0.8c0,0.3-0.1,0.6-0.1,1c0,0.2,0,0.3,0,0.5
	c-0.1,2.7,0.5,5.5,1.9,8l76.5,155.1c-3.6,0.5-7.3,0.8-11,0.8c-9.6,0-19.1-1.6-28-4.9c-8.1-3-17,1.2-19.9,9.2c-3,8.1,1.2,17,9.2,19.9
	c12.4,4.5,25.4,6.8,38.7,6.8c8.7,0,17.1-1,25.3-2.9l46.8,95H34.1c-8.6,0-15.5,6.9-15.5,15.5c0,8.6,6.9,15.5,15.5,15.5h155.2
	L121.7,235.2z M36,61.5c9.9-4.1,20.5-6.3,31.4-6.3c45,0,81.5,36.6,81.5,81.5c0,30.2-16.5,56.6-40.9,70.6L36,61.5z"/>
<path d="M229.8,132.8c5-7.4,9.7-12.8,13.9-16.1c4.2-3.3,8.3-4.9,12.3-4.9c2.3,0,4.3,0.4,6.1,1.3
	c1.8,0.9,3.3,2.3,4.5,4.2c1.2,1.9,2,4.4,2.6,7.3c0.2,1,0.3,2.1,0.4,3.3c-2,6.8-2.9,14.3-2.9,22.4c0,9.2,1.2,17.3,3.7,24.3
	s6.1,12.9,10.8,17.6s10.4,8.3,17.2,10.7c6.7,2.4,14.4,3.6,22.9,3.6c3.4,0,6.9-0.1,10.5-0.4c3.6-0.3,7.2-0.7,10.7-1.2
	c3.2-0.5,6.3-1,9.3-1.6v0.5h26.9v-70.9c4.7-6.3,9-11.3,13.2-15c4.2-3.7,8.5-5.5,13.1-5.5c9.1,0,13.7,6.1,13.7,18.4v72.9h26.9v-8.3
	c3.7,3.1,8,5.5,12.8,7.3c6.6,2.4,14,3.6,22.3,3.6c7.5,0,14.2-1,20.2-3.1v0.5h45.7v0.1H642v-3.4c2.5,1.5,5.3,2.7,8.5,3.6
	c5.3,1.5,11.7,2.3,19,2.3c4.4,0,9.1-0.3,14-1c5-0.6,9.8-1.5,14.7-2.6h0.1v-21.6c-3.5,0.9-7.3,1.8-11.5,2.5s-8.5,1.1-12.9,1.1
	c-6.9,0-11.9-1.6-14.8-4.9s-4.4-8.1-4.4-14.5v-52.7h43.5V91.7h-43.5V55.9l-27.6,7.2v28.7h-17.4H597h-33V48h-59.2v21h31.6v113.8h-9.7
	c2.2-3.6,4-7.5,5.5-11.7c2.4-7.3,3.7-15.4,3.7-24.2c0-9.4-1.2-17.7-3.6-24.9c-2.4-7.1-5.8-13.1-10.4-18c-4.5-4.9-10.1-8.5-16.6-11
	c-6.6-2.5-14-3.7-22.4-3.7c-8.5,0-16.3,1.4-23.1,4.2c-6.9,2.9-12.7,6.9-17.4,12c-0.4,0.4-0.8,0.9-1.1,1.3c-1.2-2.5-2.6-4.7-4.3-6.7
	c-2.9-3.4-6.4-6-10.7-7.9c-4.3-1.9-9.3-2.8-15-2.8c-4.1,0-7.8,0.4-11.1,1.3c-3.3,0.9-6.4,2.1-9.3,3.8c-2.9,1.6-5.5,3.6-8,6
	c-2.5,2.3-4.8,4.9-7.1,7.8l-0.7-16.5h-23.3v8c-3.3-2.7-7-4.9-11.3-6.6c-6.1-2.5-13.2-3.7-21.1-3.7c-8,0-15.3,1.5-21.8,4.4
	c-3.7,1.6-7,3.7-10.1,6.1c-2.8-3.4-6.2-6-10.2-7.8c-4.3-1.9-9.3-2.9-15-2.9c-4.2,0-7.9,0.4-11.4,1.3c-3.4,0.9-6.6,2.1-9.4,3.8
	c-2.8,1.7-5.4,3.6-7.7,5.9c-2.3,2.3-4.4,4.8-6.2,7.7l-1-16.3h-24.4v112h27.6V132.8z M627.1,112.6v54.7c0,5.9,0.6,11.1,1.9,15.6
	h-19.3v-70.3H627.1z M582.1,112.7v70.1H564v-70.1H582.1z M457.1,134.2c1-4.3,2.6-8,4.7-11.2c2.2-3.2,4.9-5.8,8.2-7.6
	c3.3-1.9,7.3-2.8,12-2.8c8.5,0,14.9,3,19.3,8.8c4.4,5.9,6.6,14.6,6.6,26.2c0,5-0.5,9.6-1.6,14.1c-1,4.3-2.5,8.1-4.6,11.3
	c-2,3.2-4.7,5.7-8,7.5c-3.3,1.8-7.2,2.7-11.7,2.7c-8.2,0-14.6-3-19.3-8.9c-4.7-5.9-7.1-14.7-7.1-26.4
	C455.6,143,456.1,138.5,457.1,134.2z M351.8,182.1c-3,0.6-5.9,1.1-8.8,1.5c-6.2,0.9-12.1,1.3-17.5,1.3c-4.7,0-8.9-0.7-12.8-2
	c-3.8-1.3-7.1-3.3-9.9-5.8s-4.9-5.7-6.4-9.4c-1.5-3.7-2.3-8.1-2.3-13h57.7V182.1z M302.1,116.3c4.3-4.5,9.8-6.8,16.6-6.8
	c3.1,0,6,0.5,8.7,1.5s5.1,2.6,7.1,4.7c2,2.1,3.6,4.8,4.8,8.1s1.8,7.1,1.7,11.5v0.1h-46.6c0,0,0-0.1,0-0.1h2.3c0.1-3.4,0-6.6-0.2-9.6
	C297.8,122,299.7,118.8,302.1,116.3z M578.1,67.9c-0.9-2.1-1.3-4.4-1.3-6.8c0-2.4,0.4-4.7,1.3-6.8c0.9-2.1,2.1-4,3.7-5.6
	c1.6-1.6,3.5-2.9,5.6-3.8c2.2-0.9,4.5-1.4,7-1.4s4.8,0.5,6.9,1.4c2.1,0.9,4,2.2,5.6,3.8c1.6,1.6,2.8,3.5,3.7,5.6
	c0.9,2.1,1.3,4.4,1.3,6.8c0,2.4-0.4,4.7-1.3,6.8c-0.9,2.1-2.1,4-3.7,5.6c-1.6,1.6-3.4,2.8-5.6,3.7c-2.1,0.9-4.4,1.4-6.9,1.4
	s-4.8-0.5-7-1.4c-2.2-0.9-4-2.2-5.6-3.7C580.2,71.9,579,70.1,578.1,67.9z M696.3,243.9c-2.6-6.5-6.5-11.9-11.8-16.3
	c-5.4-4.4-12.1-7.6-20.3-9.8s-18-3.3-29.4-3.3c-10.4,0-20.4,1-30.1,2.9c-4.2,0.8-8.2,1.8-12,2.8l0.9-2.2h-39.8l-32.3,88.6l-9.4,27
	l-9.6-28.2l-32-87.4h-41.3l5.9,14.7c-5.8-5.6-12.7-9.8-20.7-12.8c-9-3.4-19.3-5.1-30.8-5.1c-11.9,0-22.5,1.9-31.9,5.8
	c-9.4,3.9-17.4,9.4-23.9,16.5c-0.8,0.9-1.6,1.8-2.3,2.7c-1.7-3.8-3.9-7.2-6.4-10.3c-3.9-4.7-8.8-8.3-14.7-10.9
	c-5.8-2.6-12.7-3.9-20.6-3.9c-5.6,0-10.8,0.6-15.3,1.8s-8.8,2.9-12.7,5.2c-3.9,2.3-7.6,5.1-11,8.3c-3.4,3.3-6.7,6.9-9.8,10.8
	l-0.9-22.8h-32v154.2h37v-97.6c6.3-8.7,12.4-15.5,18.1-20.6s11.7-7.6,18-7.6c12.5,0,18.8,8.4,18.8,25.3v100.5h37v-12.6
	c5.4,4.7,11.7,8.5,18.9,11.1c9.1,3.3,19.3,5,30.7,5c12.1,0,22.8-1.9,32.2-5.9c9.4-4,17.3-9.5,23.8-16.7s11.5-15.8,14.9-25.9
	c3.5-10.1,5.2-21.2,5.2-33.3c0-2.4-0.1-4.8-0.2-7.1l33.9,85.4H533l46.4-118c8.2-3.6,16.6-6.5,25.4-8.6c8.8-2.1,17.8-3.1,26.9-3.1
	c5.8,0,10.7,0.6,14.6,1.8c3.9,1.3,7.1,3,9.6,5.2s4.3,4.9,5.4,8.1c1.1,3.2,1.7,6.8,1.7,10.7v9.3h-20.3c-12.7,0-23.8,1.3-33.3,3.8
	c-9.5,2.6-17.4,6-23.7,10.5c-6.3,4.4-11,9.7-14.1,15.9S567,320.7,567,328c0,7.1,1,13.5,3.1,19.4c2.1,5.8,5.2,10.9,9.2,15
	c4,4.1,9,7.4,15,9.7s12.9,3.5,20.8,3.5c6,0,11.5-0.5,16.5-1.7c5-1.1,9.7-2.8,13.9-4.9c4.3-2.1,8.2-4.6,11.7-7.5
	c3.6-2.9,7-6.1,10.2-9.5l0.9,20.2V372h31.8V266.7C700.1,258,698.8,250.4,696.3,243.9z M416.4,314c-1.4,6-3.6,11.2-6.4,15.6
	c-2.9,4.4-6.5,7.8-11.1,10.3c-4.6,2.5-9.9,3.7-16.1,3.7c-11.3,0-20.1-4.1-26.6-12.2s-9.7-20.2-9.7-36.3c0-6.7,0.6-12.9,2-18.8
	c1.3-5.9,3.5-11,6.4-15.4c2.9-4.4,6.6-7.9,11.2-10.4c4.5-2.5,10-3.8,16.5-3.8c11.7,0,20.6,4.1,26.6,12.1s9,20,9,36
	C418.2,301.7,417.5,308.1,416.4,314z M663.1,324.7c-6.7,7-12.8,12.4-18.4,16.1s-10.9,5.6-16.1,5.6c-6.9,0-12.5-1.6-16.5-4.9
	c-4.1-3.2-6.1-8-6.1-14.3c0-3.2,0.6-6.1,1.9-8.9s3.3-5.3,6-7.4c2.7-2.1,6.2-3.8,10.6-5c4.3-1.2,9.6-1.8,15.9-1.8H663h0.1V324.7z"/>
</g>
</svg>
