<svg id="Réteg_1" data-name="Réteg 1" xmlns="http://www.w3.org/2000/svg" viewBox="0 0 214.88 140.56"><defs><style>.cls-1{fill:#6bdedc;}.cls-1,.cls-2{fill-rule:evenodd;}.cls-2{fill:#00bbb8;}.cls-3{fill:gray;}</style></defs><title>cskivminilogo</title><g id="teto"><polygon class="cls-1" points="38.04 58.07 102.76 0 125.77 40.38 61.05 98.46 38.04 58.07"/><polygon class="cls-2" points="38.04 58.07 102.76 0 64.72 12.05 0 70.13 38.04 58.07"/><polygon class="cls-1" points="116.58 80.86 181.29 22.79 214.88 81.74 150.16 139.81 116.58 80.86"/><polygon class="cls-2" points="116.58 80.86 181.29 22.79 125.77 40.38 61.05 98.46 116.58 80.86"/></g><g id="csaladihaz"><path class="cls-3" d="M37.14,99.12v3.27c0,3.94-2,6.2-5.77,6.2s-5.77-2.25-5.77-6.2V89.58c0-3.94,2-6.2,5.77-6.2s5.77,2.25,5.77,6.2V92H33.48V89.33c0-1.76-.77-2.43-2-2.43s-2,.67-2,2.43v13.31c0,1.76.77,2.39,2,2.39s2-.63,2-2.39V99.12h3.66Z" transform="translate(-25.5 -4.68)"/><path class="cls-3" d="M44.71,83.38c3.77,0,5.7,2.25,5.7,6.2v0.77H46.75v-1c0-1.76-.7-2.43-1.94-2.43s-1.94.67-1.94,2.43,0.77,3.13,3.31,5.35c3.24,2.85,4.26,4.89,4.26,7.71,0,3.94-2,6.2-5.77,6.2s-5.77-2.25-5.77-6.2v-1.51h3.66v1.76c0,1.76.77,2.39,2,2.39s2-.63,2-2.39-0.77-3.13-3.31-5.35C40,94.44,39,92.4,39,89.58,39,85.64,40.94,83.38,44.71,83.38Z" transform="translate(-25.5 -4.68)"/><path class="cls-3" d="M65.19,108.31H61.28l-0.67-4.47H55.86l-0.67,4.47H51.64l3.94-24.64h5.67Zm-8.84-7.81h3.73L58.26,88H58.19Z" transform="translate(-25.5 -4.68)"/><path class="cls-3" d="M67,83.67h3.87v21.12h6.37v3.52H67V83.67Z" transform="translate(-25.5 -4.68)"/><path class="cls-3" d="M91.45,108.31H87.54l-0.67-4.47H82.12l-0.67,4.47H77.9l3.94-24.64h5.67ZM88.81,78.46l-3.59,3.91h-2.6L85,78.46h3.8Zm-6.2,22h3.73L84.52,88H84.44Z" transform="translate(-25.5 -4.68)"/><path class="cls-3" d="M93.24,83.67h6.13c3.87,0,5.77,2.15,5.77,6.09v12.46c0,3.94-1.9,6.09-5.77,6.09H93.24V83.67Zm3.87,3.52v17.6H99.3c1.23,0,2-.63,2-2.39V89.58c0-1.76-.74-2.39-2-2.39H97.12Z" transform="translate(-25.5 -4.68)"/><path class="cls-3" d="M107.6,83.67h3.87v24.64H107.6V83.67Z" transform="translate(-25.5 -4.68)"/><path class="cls-3" d="M118.16,108.31h-3.87V83.67h3.87V94.23h4.4V83.67h3.94v24.64h-3.94V97.75h-4.4v10.56Z" transform="translate(-25.5 -4.68)"/><path class="cls-3" d="M141.85,108.31h-3.91l-0.67-4.47h-4.75l-0.67,4.47H128.3l3.94-24.64h5.67Zm-2.64-29.85-3.59,3.91H133l2.39-3.91h3.8Zm-6.2,22h3.73L134.92,88h-0.07Z" transform="translate(-25.5 -4.68)"/><path class="cls-3" d="M154.38,83.67v3.45L147,104.79h7.36v3.52H143v-3.45l7.36-17.67h-7V83.67h11Z" transform="translate(-25.5 -4.68)"/></g><g id="kivitelezes"><path class="cls-3" d="M33,131.46l-1.63,3.07v10.32H26.08V111.25h5.28V125.8h0.1l6.82-14.55h5.28l-7.35,15,7.35,18.63H38.14Z" transform="translate(-25.5 -4.68)"/><path class="cls-3" d="M46,111.25h5.28v33.61H46V111.25Z" transform="translate(-25.5 -4.68)"/><path class="cls-3" d="M63,138.67h0.1l4-27.42h4.85l-5.19,33.61H58.88L53.7,111.25H59Z" transform="translate(-25.5 -4.68)"/><path class="cls-3" d="M74.39,111.25h5.28v33.61H74.39V111.25Z" transform="translate(-25.5 -4.68)"/><path class="cls-3" d="M82,111.25H98.31v4.8H92.78v28.81H87.5V116.05H82v-4.8Z" transform="translate(-25.5 -4.68)"/><path class="cls-3" d="M105.89,125.41h7.25v4.8h-7.25v9.84H115v4.8H100.61V111.25H115v4.8h-9.12v9.36Z" transform="translate(-25.5 -4.68)"/><path class="cls-3" d="M118.28,111.25h5.28v28.81h8.69v4.8h-14V111.25Z" transform="translate(-25.5 -4.68)"/><path class="cls-3" d="M139.85,125.41h7.25v4.8h-7.25v9.84H149v4.8H134.56V111.25H149v4.8h-9.12v9.36Z" transform="translate(-25.5 -4.68)"/><path class="cls-3" d="M166.88,111.25V116l-10,24.11h10v4.8H151.42v-4.71l10-24.11H151.9v-4.8h15Z" transform="translate(-25.5 -4.68)"/><path class="cls-3" d="M175.29,125.41h7.25v4.8h-7.25v9.84h9.12v4.8H170V111.25h14.41v4.8h-9.12v9.36Zm7.54-21.27-4.9,5.33h-3.55l3.26-5.33h5.19Z" transform="translate(-25.5 -4.68)"/><path class="cls-3" d="M194.78,110.86c5.14,0,7.78,3.07,7.78,8.45v1.06h-5V119c0-2.4-1-3.31-2.64-3.31s-2.64.91-2.64,3.31,1.06,4.27,4.51,7.3c4.42,3.89,5.81,6.67,5.81,10.52,0,5.38-2.69,8.45-7.87,8.45s-7.87-3.07-7.87-8.45v-2.06h5v2.4c0,2.4,1.06,3.27,2.74,3.27s2.74-.86,2.74-3.27-1.06-4.27-4.51-7.3c-4.42-3.89-5.81-6.67-5.81-10.52C187,113.94,189.65,110.86,194.78,110.86Z" transform="translate(-25.5 -4.68)"/></g></svg>