<?xml version="1.0" encoding="utf-8"?>
<!-- Generator: Adobe Illustrator 19.2.1, SVG Export Plug-In . SVG Version: 6.00 Build 0)  -->
<svg version="1.1" id="Réteg_1" xmlns="http://www.w3.org/2000/svg" xmlns:xlink="http://www.w3.org/1999/xlink" x="0px" y="0px"
	 viewBox="0 0 700 400" style="enable-background:new 0 0 700 400;" xml:space="preserve">
	 
	 <linearGradient id="lg" x1="0.5" y1="1" x2="0.5" y2="0">
    
          <stop offset="100%" stop-opacity="1" stop-color="#f07746">
            <animate attributeName="offset" values="0;0;1" dur="5s" begin="0s"/>
          </stop>
          <stop offset="100%" stop-opacity="0" stop-color="#f07746">
            <animate attributeName="offset" values="0;0;1" dur="5s"  begin="0s"/>
          </stop>
      </linearGradient>


<g fill="#FFFFFF">
	<path d="M207.1,359.3L146.8,237c31.2-19,52-53.3,52-92.5c0-59.7-48.5-108.2-108.2-108.2C70,36.3,50,42.1,32.7,53.1
	c-4.3,2.7-7.2,6.9-8.3,11.8c-1,4.6-0.3,9.2,2,13.3l67.4,136.7c-1,0-2,0.1-3.1,0.1c-8.3,0-16.5-1.5-24.2-4.3
	c-2.1-0.8-4.3-1.2-6.5-1.2c-7.9,0-15,5-17.7,12.4c-1.7,4.7-1.5,9.8,0.6,14.4c2.1,4.6,5.9,8.1,10.6,9.8c11.9,4.4,24.4,6.6,37.2,6.6
	c7.1,0,14-0.7,20.7-2l38.2,77.5H60c-10.4,0-18.9,8.5-18.9,18.9S49.6,366,60,366h142.9c1.6,0,3.1-0.8,4-2.2
	C207.7,362.4,207.8,360.7,207.1,359.3z M130,203L68.3,77.8c7.2-2.4,14.7-3.6,22.4-3.6c38.8,0,70.4,31.6,70.4,70.4
	C161.1,168.9,148.7,190.3,130,203z"/>
	<path d="M211.4,210.8h25.4c2.5,0,4.6-2,4.4-4.4v-63.9c4.1-5.9,7.8-10.2,11.1-12.7c3-2.4,5.9-3.6,8.5-3.6
		c1.4,0,2.5,0.2,3.5,0.7c0.9,0.4,1.6,1.2,2.3,2.2c0.8,1.3,1.4,3,1.8,5.1c0.1,0.7,0.2,1.4,0.3,2.1c-1.7,6.3-2.5,13.1-2.5,20.5
		c0,9,1.2,17,3.7,23.9c2.5,7.1,6.2,13.1,11,17.9s10.8,8.5,17.6,11c6.7,2.4,14.4,3.6,22.7,3.6c3.2,0,6.6-0.2,9.7-0.4
		c3.4-0.2,6.9-0.6,10.2-1.1c2.3-0.3,4.6-0.7,6.8-1.1c0.4,0.1,0.9,0.2,1.3,0.2H374c2.5,0,4.6-2.1,4.6-4.6v-63.8
		c3.7-5,7.3-9,10.6-11.9c3-2.6,5.9-3.9,9-3.9c2.6,0,8,0,8,12.4v67.2c0,2.5,2.1,4.6,4.6,4.6h24.8c2.3,0,4.1-1.6,4.4-3.8
		c1.8,1,3.7,1.8,5.8,2.6c6.5,2.4,13.9,3.6,22.1,3.6c6.4,0,12.4-0.8,17.8-2.5c0.3,0,0.5,0.1,0.8,0.1h42.2h45.6h42.2
		c1.1,0,2.2-0.4,3-1.1c1.1,0.4,2.3,0.8,3.5,1.2c5.3,1.5,11.6,2.3,18.8,2.3c4.3,0,8.8-0.4,13.5-0.9c4.6-0.6,9.3-1.5,13.9-2.5
		c2.1-0.5,3.6-2.4,3.6-4.5v-19.8c0-1.5-0.7-2.8-1.8-3.7s-2.6-1.2-4-0.8c-3,0.8-6.4,1.6-10.1,2.2c-3.6,0.6-7.3,0.9-11.1,0.9
		c-5,0-8.4-1-10.2-3c-1.9-2.2-2.9-5.6-2.9-10.3v-43.9h35.5c2.5,0,4.6-2.1,4.6-4.6V103c0-2.5-2.1-4.6-4.6-4.6h-35.5V70
		c0-1.4-0.7-2.7-1.8-3.6c-1.2-0.9-2.6-1.2-4-0.8l-25.4,6.6c-2,0.6-3.4,2.4-3.4,4.5v21.8h-11.3H575h-25.9V62.8c0-2.5-2.1-4.6-4.6-4.6
		H490c-2.5,0-4.6,2.1-4.6,4.6v19.3c0,2.5,2.1,4.6,4.6,4.6h24.6v31.4c-1.6-2.6-3.4-5-5.4-7.1c-4.7-5-10.4-8.8-17.1-11.3
		c-6.5-2.5-14-3.7-22.2-3.7c-8.5,0-16.3,1.5-23.1,4.3c-5.4,2.3-10.3,5.3-14.4,9.1c-0.4-0.6-0.8-1.1-1.3-1.7
		c-3.1-3.7-6.9-6.6-11.5-8.6c-4.5-2-9.8-3-15.7-3c-4.1,0-8,0.5-11.4,1.4s-6.6,2.3-9.6,4c-2.7,1.6-5.2,3.4-7.5,5.5l-0.2-4.1
		c-0.1-2.4-2.1-4.4-4.6-4.4h-21.4c-2.1,0-3.9,1.5-4.4,3.4c-1.4-0.7-2.9-1.4-4.4-2c-6.1-2.4-13.2-3.7-21.1-3.7
		c-8,0-15.3,1.5-21.9,4.4c-2.5,1.1-4.8,2.4-7,3.9c-2.4-2.1-5.1-3.8-8-5.2c-4.6-2.1-9.9-3.1-15.7-3.1c-4.2,0-8.1,0.5-11.6,1.4
		c-3.6,0.9-6.9,2.3-9.9,4c-2.3,1.4-4.6,3-6.6,4.8l-0.2-3.6c-0.2-2.4-2.2-4.3-4.6-4.3h-22.4c-2.5,0-4.6,2.1-4.6,4.6v103.1
		C206.8,208.7,208.9,210.8,211.4,210.8z M303,138.6c0-1.2-0.1-2.3-0.1-3.4c1-2.5,2.3-4.7,4-6.4c3.1-3.2,7-4.8,12-4.8
		c2.2,0,4.4,0.4,6.3,1.1c1.8,0.7,3.4,1.7,4.8,3.2c1.4,1.5,2.5,3.5,3.4,5.9c0.5,1.3,0.8,2.8,1,4.4H303z M344.6,182.3
		c-1.5,0.3-2.9,0.5-4.3,0.7c-5.5,0.7-10.7,1.1-15.5,1.1c-3.8,0-7.2-0.6-10.3-1.6c-2.9-1-5.4-2.5-7.5-4.4c-2-1.9-3.6-4.2-4.7-7
		c-0.7-1.7-1.2-3.6-1.5-5.7h43.8V182.3z M591.4,127h6.7v45.7c0,3.5,0.2,6.7,0.7,9.7h-7.4V127z M556.8,182.3h-7.7V127h7.7V182.3z
		 M449.4,154.7c0-4,0.5-7.9,1.3-11.5c0.8-3.4,2.1-6.3,3.7-8.8c1.5-2.4,3.5-4.2,5.9-5.5c2.3-1.3,5.3-2,8.8-2c6.4,0,11,2,14.2,6.2
		c3.4,4.6,5.1,11.8,5.1,21.4c0,4.2-0.4,8.2-1.3,11.8c-0.9,3.5-2.1,6.5-3.7,9c-1.4,2.4-3.3,4.1-5.7,5.4c-2.4,1.3-5.3,1.9-8.6,1.9
		c-6.1,0-10.8-2.1-14.2-6.4C451.2,171.6,449.4,164.3,449.4,154.7z"/>
	<path d="M557.8,89.6c1.8,1.8,4.1,3.3,6.6,4.4c2.5,1,5.3,1.6,8.2,1.6s5.7-0.6,8.3-1.6c2.5-1,4.7-2.5,6.6-4.4
		c1.9-1.9,3.4-4.1,4.4-6.6c1.1-2.6,1.6-5.3,1.6-8.1c0-2.9-0.6-5.6-1.6-8.1c-1.1-2.5-2.5-4.7-4.4-6.6c-1.9-1.9-4.1-3.4-6.6-4.5
		c-2.5-1-5.3-1.6-8.2-1.6s-5.6,0.5-8.2,1.6c-2.6,1.1-4.8,2.6-6.7,4.5s-3.4,4.1-4.4,6.6c-1.1,2.6-1.6,5.3-1.6,8.1
		c0,2.9,0.6,5.6,1.6,8.1S555.9,87.7,557.8,89.6z"/>
	<path d="M670.7,241.6c-2.6-6.7-6.7-12.4-12.2-16.9c-5.4-4.4-12.2-7.7-20.4-9.9c-7.9-2.1-17.4-3.2-28.3-3.2
		c-9.8,0-19.4,0.9-28.6,2.7c-2.3,0.4-4.5,0.9-6.7,1.4c-0.8-0.6-1.8-1-2.8-1h-36.6c-1.9,0-3.6,1.2-4.3,3L501,299.4l-4.3,12.2
		l-4.5-13.3v-0.1l-29.5-80.5c-0.6-1.8-2.4-3-4.3-3h-38c-1.5,0-2.9,0.7-3.8,2c-0.7,1-1,2.2-0.8,3.3c-2.3-1.2-4.7-2.3-7.2-3.3
		c-8.8-3.3-18.9-5-30-5c-11.4,0-21.9,1.9-31.1,5.7c-8.2,3.4-15.4,8.1-21.3,14c-1-1.6-2.1-3.1-3.3-4.5c-4-4.8-9.2-8.6-15.2-11.3
		s-13-4-20.9-4c-5.6,0-10.7,0.6-15.3,1.8c-4.6,1.2-8.9,3-12.9,5.3c-3.9,2.3-7.6,5.1-11,8.3c-0.6,0.6-1.1,1.1-1.7,1.7l-0.4-9.5
		c-0.1-2.4-2.1-4.4-4.6-4.4h-29.5c-2.5,0-4.6,2.1-4.6,4.6v142c0,2.5,2.1,4.6,4.6,4.6h34.1c2.5,0,4.6-2.1,4.6-4.6V273
		c5.3-7.2,10.4-12.9,15.1-17.1c4.4-3.9,8.8-5.8,13.5-5.8c5.9,0,12.7,2.1,12.7,18.7v92.5c0,2.5,2.1,4.6,4.6,4.6h34.1
		c2.5,0,4.6-2,4.8-4.6v-2.5c3.5,2.1,7.1,3.9,11.1,5.4c8.7,3.3,18.8,4.9,29.8,4.9c11.7,0,22.2-1.9,31.4-5.7
		c9.3-3.8,17.2-9.4,23.6-16.5c6.3-7,11.2-15.6,14.6-25.4c1.8-5.2,3.1-10.9,3.9-16.7l23.1,58.2c0.7,1.7,2.4,2.9,4.3,2.9H516
		c1.9,0,3.6-1.1,4.2-2.9l42-106.8c6.8-2.9,13.9-5.3,21-6.9c7.8-1.8,15.8-2.7,23.8-2.7c4.9,0,8.9,0.5,12.1,1.5c3,0.9,5.4,2.2,7.2,3.8
		c1.7,1.6,2.9,3.4,3.7,5.6c0.9,2.4,1.3,5.2,1.3,8.3v3.9h-14c-12.1,0-22.8,1.3-31.9,3.7c-9.2,2.4-17.1,5.9-23.3,10.3
		c-6.5,4.5-11.3,10.1-14.5,16.4c-3.1,6.3-4.7,13.2-4.7,20.6c0,7,1,13.5,3.1,19.4c2.1,6,5.3,11.2,9.5,15.5s9.4,7.6,15.5,10
		c6,2.3,13,3.5,20.8,3.5c5.8,0,11.2-0.5,16.2-1.7c4.9-1.1,9.6-2.8,13.8-4.9s8.1-4.6,11.6-7.5c0.8-0.6,1.5-1.2,2.3-1.9l0.4,8.4
		c0.1,2.5,2.1,4.4,4.6,4.4h29.2c2.5,0,4.6-2.1,4.6-4.6v-97C674.5,255.8,673.2,248.1,670.7,241.6z M593.4,308.5
		c2-1.6,4.8-2.8,8.2-3.8c3.5-1,8.1-1.5,13.4-1.5v-0.1h16.2v12.5c-5.4,5.6-10.4,9.9-14.9,12.9c-4.3,2.9-8.4,4.4-12.2,4.4
		c-5.3,0-9.4-1.2-12.3-3.5c-2.6-2.1-3.9-5.2-3.9-9.6c0-2.3,0.4-4.3,1.3-6.3C590.1,311.7,591.5,310,593.4,308.5z M355.8,261.4
		c2.3-3.5,5.1-6.1,8.7-8.1c3.5-1.9,7.9-2.9,13-2.9c9.4,0,16.2,3,20.8,9.2c4.9,6.5,7.4,16.8,7.4,30.4c0,6-0.6,11.6-1.8,16.7
		c-1.2,5-3,9.3-5.3,12.9c-2.2,3.5-5,6.1-8.5,8s-7.7,2.9-12.6,2.9c-9,0-15.8-3.1-20.9-9.5c-5.2-6.6-7.9-16.9-7.9-30.6
		c0-5.8,0.6-11.3,1.8-16.3C351.6,269.2,353.4,265,355.8,261.4z"/>
</g>
<g fill="url(#lg)">
<path id="logo-logo" d="M140.7,235.2c31.9-17.7,53.6-51.7,53.6-90.7c0-57.1-46.5-103.6-103.6-103.6
	C71,40.9,51.8,46.5,35.3,57c-1.9,1.2-3.4,2.7-4.5,4.5c-2.6,4-3,9.3-0.7,13.9l70.7,143.4c-3.3,0.4-6.7,0.7-10.1,0.7
	c-8.9,0-17.6-1.5-25.8-4.5c-7.4-2.7-15.6,1.1-18.3,8.5s1.1,15.6,8.5,18.3c11.4,4.2,23.4,6.3,35.6,6.3c8,0,15.8-0.9,23.2-2.6
	l43.1,87.3H60c-7.9,0-14.3,6.4-14.3,14.3s6.4,14.3,14.3,14.3h142.9L140.7,235.2z M61.8,75.2c9.1-3.8,18.9-5.7,28.9-5.7
	c41.3,0,75,33.6,75,75c0,27.7-15.2,52-37.7,65L61.8,75.2z"/>

<path id="logo-felirat" d="M236.8,141c4.6-6.9,8.9-11.9,12.8-14.9c3.9-3,7.6-4.5,11.3-4.5c2.1,0,4,0.3,5.6,1.2
	c1.6,0.9,3,2.1,4.1,3.9c1.1,1.8,1.9,4,2.4,6.7c0.2,1.1,0.4,2.3,0.5,3.5c-1.7,6.1-2.6,12.6-2.6,19.8c0,8.4,1.2,15.9,3.5,22.3
	c2.4,6.4,5.7,11.8,10,16.2s9.6,7.7,15.8,9.9c6.2,2.3,13.2,3.4,21.1,3.4c3.1,0,6.3-0.2,9.6-0.4c3.3-0.3,6.6-0.6,9.8-1.1
	c2.9-0.4,5.8-0.9,8.6-1.4v0.6h24.8v-65.3c4.2-5.8,8.3-10.4,12.1-13.8c3.8-3.4,7.8-5.1,12-5.1c8.4,0,12.6,5.7,12.6,17v67.2v0.1h24.7
	v-7.9c3.5,2.9,7.4,5.2,11.9,6.8c6,2.3,12.9,3.4,20.5,3.4c6.8,0,12.9-1,18.5-2.9v0.6h42.2h45.6h42.2V203c2.3,1.4,5,2.5,7.9,3.4
	c4.9,1.4,10.7,2.1,17.5,2.1c4.1,0,8.4-0.3,12.9-0.9c4.5-0.6,9-1.4,13.5-2.4h0.1v-19.7c-3.2,0.8-6.7,1.6-10.6,2.3s-7.8,1-11.9,1
	c-6.4,0-10.9-1.5-13.6-4.5c-2.7-3.1-4.1-7.5-4.1-13.4v-48.5h40.1v-19.3h-40.1v-33l-25.4,6.6V103H575v0.1h-30.5V62.8H490V82h29.1v105
	h-9c2.1-3.3,3.8-6.9,5.2-10.9c2.3-6.7,3.5-14.2,3.5-22.3c0-8.6-1.1-16.3-3.3-22.9c-2.2-6.6-5.4-12.1-9.6-16.6s-9.3-7.8-15.3-10.1
	s-12.9-3.4-20.6-3.4c-7.9,0-15,1.3-21.3,3.9s-11.6,6.3-16,11c-0.4,0.4-0.8,0.9-1.2,1.3c-1.1-2.3-2.4-4.4-3.9-6.2
	c-2.6-3.1-5.9-5.6-9.8-7.3c-3.9-1.7-8.5-2.6-13.8-2.6c-3.8,0-7.3,0.4-10.3,1.2c-3,0.8-5.8,2-8.5,3.5s-5.1,3.3-7.4,5.5
	c-2.2,2.2-4.4,4.6-6.5,7.2l-0.6-15.2h-21.4v7.1c-3-2.5-6.5-4.5-10.4-6.1c-5.6-2.3-12.1-3.4-19.4-3.4c-7.4,0-14.1,1.3-20.1,4
	c-3.5,1.6-6.6,3.5-9.5,5.8c-2.6-3-5.7-5.3-9.3-6.9c-4.1-1.8-8.7-2.7-13.9-2.7c-3.8,0-7.3,0.4-10.5,1.2c-3.2,0.8-6.1,2-8.7,3.5
	c-2.6,1.5-5,3.3-7.1,5.4s-4,4.5-5.7,7.1l-0.9-15h-22.4v103.2h25.4L236.8,141L236.8,141z M604.5,187h-17.8v-64.7h16v50.4
	C602.7,178.1,603.3,182.9,604.5,187z M561.3,122.4L561.3,122.4V187h-16.8v-64.6H561.3z M446.3,142c0.9-3.9,2.3-7.4,4.3-10.3
	c1.9-3,4.5-5.3,7.5-7c3.1-1.7,6.8-2.5,11.1-2.5c7.8,0,13.8,2.7,17.8,8.1c4,5.4,6,13.4,6,24.1c0,4.6-0.5,8.9-1.3,12.9
	c-1,4-2.4,7.5-4.3,10.4s-4.4,5.2-7.4,6.9c-3.1,1.7-6.7,2.5-10.8,2.5c-7.5,0-13.5-2.8-17.8-8.2s-6.5-13.5-6.5-24.3
	C444.9,150.1,445.4,145.9,446.3,142z M349.3,186.1c-2.8,0.6-5.6,1.1-8.3,1.4c-5.7,0.8-11.1,1.2-16.1,1.2c-4.3,0-8.3-0.6-11.8-1.8
	s-6.6-2.9-9.1-5.3c-2.5-2.4-4.5-5.2-5.9-8.7s-2.1-7.5-2.1-12h53.3V186.1z M303.6,125.5c4-4.1,9.1-6.2,15.3-6.2c2.9,0,5.5,0.5,8,1.4
	c2.5,1,4.6,2.4,6.5,4.4c1.8,2,3.3,4.5,4.4,7.5s1.6,6.4,1.5,10.5h-40.7c0.1-3.1,0-6-0.2-8.8C299.6,130.8,301.3,127.9,303.6,125.5z
	 M561.1,86.2c1.5,1.5,3.2,2.7,5.2,3.5c1.9,0.9,4.1,1.3,6.4,1.3c2.3,0,4.4-0.5,6.4-1.3c1.9-0.9,3.6-2,5.1-3.5
	c1.5-1.4,2.6-3.1,3.4-5.1s1.2-4.1,1.2-6.3s-0.4-4.3-1.2-6.3s-1.9-3.7-3.4-5.2c-1.4-1.5-3.1-2.7-5.1-3.5c-2-0.9-4.1-1.3-6.4-1.3
	c-2.3,0-4.4,0.5-6.4,1.3s-3.7,2-5.2,3.5c-1.5,1.5-2.6,3.2-3.4,5.2s-1.2,4.1-1.2,6.3s0.4,4.3,1.2,6.3C558.5,83,559.6,84.7,561.1,86.2
	z M666.4,243c-2.3-6-5.9-11-10.8-15s-11.2-7-18.7-9s-16.6-3-27.1-3c-9.6,0-18.8,0.9-27.7,2.7c-3.9,0.8-7.6,1.7-11.1,2.6l0.8-2h-36.6
	l-29.8,81.6l-8.7,24.9l-8.8-26l-29.5-80.5h-38l5.2,13c-5.3-4.9-11.4-8.7-18.5-11.3c-8.3-3.1-17.8-4.7-28.4-4.7
	c-11,0-20.7,1.8-29.4,5.4c-8.7,3.6-16,8.7-22,15.2c-0.8,0.9-1.6,1.8-2.3,2.7c-1.6-3.5-3.6-6.7-5.9-9.5c-3.7-4.4-8.2-7.7-13.6-10.1
	c-5.4-2.4-11.7-3.6-19-3.6c-5.2,0-9.9,0.6-14.1,1.7c-4.2,1.1-8.1,2.7-11.7,4.8s-7,4.6-10.1,7.6s-6.1,6.3-9,9.9l-0.8-21h-29.5v142
	h34.1v-89.9c5.9-8,11.4-14.3,16.7-19c5.3-4.7,10.8-7,16.6-7c11.5,0,17.3,7.7,17.3,23.3v92.5v0.3h34v-12.1c5.1,4.5,11,8,17.7,10.5
	c8.3,3.1,17.7,4.6,28.2,4.6c11.1,0,20.9-1.9,29.6-5.5c8.6-3.7,15.9-8.8,21.9-15.4s10.5-14.5,13.7-23.8s4.8-19.5,4.8-30.7
	c0-2-0.1-4-0.2-6l31,78.1H516l42.7-108.7c7.5-3.4,15.4-6,23.5-7.9s16.4-2.9,24.8-2.9c5.3,0,9.7,0.5,13.4,1.7s6.6,2.8,8.9,4.8
	c2.3,2.1,4,4.6,5,7.5c1,3,1.5,6.3,1.5,9.9v8.5h-18.6c-11.8,0-22,1.2-30.7,3.5s-16,5.5-21.8,9.6s-10.2,9-13,14.7
	c-2.9,5.7-4.3,11.9-4.3,18.6c0,6.5,1,12.5,2.9,17.9c2,5.4,4.8,10,8.5,13.8s8.3,6.8,13.8,8.9c5.4,2.1,11.8,3.2,19.1,3.2
	c5.5,0,10.6-0.5,15.2-1.6c4.6-1,8.9-2.5,12.8-4.5c4-1.9,7.5-4.2,10.8-6.9c3.3-2.6,6.4-5.5,9.4-8.7l0.8,18.6V361h29.2v-97
	C669.9,256,668.7,249,666.4,243z M408.6,308c-1.3,5.5-3.3,10.2-5.9,14.3c-2.6,4-6,7.2-10.2,9.5s-9.1,3.4-14.8,3.4
	c-10.4,0-18.5-3.8-24.5-11.3c-5.9-7.5-8.9-18.7-8.9-33.5c0-6.1,0.6-11.9,1.9-17.3c1.2-5.4,3.2-10.1,5.9-14.2
	c2.7-4.1,6.1-7.3,10.3-9.6s9.2-3.5,15.2-3.5c10.8,0,19,3.7,24.5,11.1c5.5,7.4,8.3,18.5,8.3,33.2C410.4,296.4,409.7,302.3,408.6,308z
	 M635.8,317.6c-6.1,6.4-11.8,11.4-16.9,14.8c-5.1,3.5-10,5.2-14.8,5.2c-6.4,0-11.5-1.5-15.2-4.5s-5.6-7.4-5.6-13.2
	c0-2.9,0.5-5.6,1.7-8.2c1.1-2.6,3-4.8,5.5-6.8c2.5-1.9,5.8-3.5,9.8-4.6s8.9-1.7,14.7-1.7h20.8V317.6z"/>
</g>
</svg>
